<mxfile host="app.diagrams.net" modified="2023-05-07T23:55:28.813Z" agent="Mozilla/5.0 (Windows NT 10.0; Win64; x64) AppleWebKit/537.36 (KHTML, like Gecko) Chrome/112.0.0.0 Safari/537.36 Edg/112.0.1722.68" etag="PzYpRH6_qcNVAtYwsSDS" version="21.2.9" type="github">
  <diagram name="PÃ¡gina-1" id="U09H-SSrCiXjcYHxB3I6">
    <mxGraphModel dx="1431" dy="788" grid="1" gridSize="10" guides="1" tooltips="1" connect="1" arrows="1" fold="1" page="1" pageScale="1" pageWidth="1169" pageHeight="827" math="0" shadow="0">
      <root>
        <mxCell id="0" />
        <mxCell id="1" parent="0" />
        <mxCell id="Gvlh0brdfd21mCTL1ysy-1" value="" style="rounded=0;whiteSpace=wrap;html=1;" vertex="1" parent="1">
          <mxGeometry x="400" y="320" width="120" height="90" as="geometry" />
        </mxCell>
        <mxCell id="Gvlh0brdfd21mCTL1ysy-3" value="Read Reg 1" style="text;html=1;strokeColor=none;fillColor=none;align=center;verticalAlign=middle;whiteSpace=wrap;rounded=0;fontSize=6;fontStyle=1" vertex="1" parent="1">
          <mxGeometry x="392" y="330" width="60" height="20" as="geometry" />
        </mxCell>
        <mxCell id="Gvlh0brdfd21mCTL1ysy-4" value="Read Reg 2" style="text;html=1;strokeColor=none;fillColor=none;align=center;verticalAlign=middle;whiteSpace=wrap;rounded=0;fontSize=6;fontStyle=1" vertex="1" parent="1">
          <mxGeometry x="392" y="342.5" width="60" height="20" as="geometry" />
        </mxCell>
        <mxCell id="Gvlh0brdfd21mCTL1ysy-5" value="Write Data" style="text;html=1;strokeColor=none;fillColor=none;align=center;verticalAlign=middle;whiteSpace=wrap;rounded=0;fontSize=6;fontStyle=1" vertex="1" parent="1">
          <mxGeometry x="390" y="390" width="60" height="20" as="geometry" />
        </mxCell>
        <mxCell id="Gvlh0brdfd21mCTL1ysy-6" value="Write Reg" style="text;html=1;strokeColor=none;fillColor=none;align=center;verticalAlign=middle;whiteSpace=wrap;rounded=0;fontSize=6;fontStyle=1" vertex="1" parent="1">
          <mxGeometry x="390" y="375" width="60" height="20" as="geometry" />
        </mxCell>
        <mxCell id="Gvlh0brdfd21mCTL1ysy-119" style="edgeStyle=orthogonalEdgeStyle;rounded=0;orthogonalLoop=1;jettySize=auto;html=1;endArrow=none;endFill=0;" edge="1" parent="1" source="Gvlh0brdfd21mCTL1ysy-7">
          <mxGeometry relative="1" as="geometry">
            <mxPoint x="640" y="320" as="targetPoint" />
            <Array as="points">
              <mxPoint x="530" y="320" />
            </Array>
          </mxGeometry>
        </mxCell>
        <mxCell id="Gvlh0brdfd21mCTL1ysy-7" value="Read Data 1" style="text;html=1;strokeColor=none;fillColor=none;align=center;verticalAlign=middle;whiteSpace=wrap;rounded=0;fontSize=6;fontStyle=1" vertex="1" parent="1">
          <mxGeometry x="460" y="340" width="60" height="20" as="geometry" />
        </mxCell>
        <mxCell id="Gvlh0brdfd21mCTL1ysy-120" style="edgeStyle=orthogonalEdgeStyle;rounded=0;orthogonalLoop=1;jettySize=auto;html=1;exitX=1;exitY=0.5;exitDx=0;exitDy=0;entryX=0.333;entryY=0.502;entryDx=0;entryDy=0;entryPerimeter=0;endArrow=none;endFill=0;" edge="1" parent="1" source="Gvlh0brdfd21mCTL1ysy-8" target="Gvlh0brdfd21mCTL1ysy-86">
          <mxGeometry relative="1" as="geometry" />
        </mxCell>
        <mxCell id="Gvlh0brdfd21mCTL1ysy-8" value="Read Data 2" style="text;html=1;strokeColor=none;fillColor=none;align=center;verticalAlign=middle;whiteSpace=wrap;rounded=0;fontSize=6;fontStyle=1" vertex="1" parent="1">
          <mxGeometry x="460" y="370" width="60" height="20" as="geometry" />
        </mxCell>
        <mxCell id="Gvlh0brdfd21mCTL1ysy-9" value="RegWrite" style="text;html=1;strokeColor=none;fillColor=none;align=center;verticalAlign=middle;whiteSpace=wrap;rounded=0;fontSize=6;fontStyle=1" vertex="1" parent="1">
          <mxGeometry x="430" y="320" width="60" height="20" as="geometry" />
        </mxCell>
        <mxCell id="Gvlh0brdfd21mCTL1ysy-10" value="REGISTRADORES" style="text;html=1;strokeColor=none;fillColor=none;align=center;verticalAlign=middle;whiteSpace=wrap;rounded=0;fontSize=6;fontStyle=1" vertex="1" parent="1">
          <mxGeometry x="430" y="410" width="60" height="20" as="geometry" />
        </mxCell>
        <mxCell id="Gvlh0brdfd21mCTL1ysy-11" value="" style="rounded=0;whiteSpace=wrap;html=1;direction=south;" vertex="1" parent="1">
          <mxGeometry x="450" y="50" width="60" height="120" as="geometry" />
        </mxCell>
        <mxCell id="Gvlh0brdfd21mCTL1ysy-12" value="CONTROLADORA" style="text;html=1;strokeColor=none;fillColor=none;align=center;verticalAlign=middle;whiteSpace=wrap;rounded=0;fontSize=6;fontStyle=1;rotation=270;" vertex="1" parent="1">
          <mxGeometry x="450" y="100" width="60" height="20" as="geometry" />
        </mxCell>
        <mxCell id="Gvlh0brdfd21mCTL1ysy-14" value="OPCode" style="text;html=1;strokeColor=none;fillColor=none;align=center;verticalAlign=middle;whiteSpace=wrap;rounded=0;fontSize=6;fontStyle=1" vertex="1" parent="1">
          <mxGeometry x="430" y="170" width="60" height="20" as="geometry" />
        </mxCell>
        <mxCell id="Gvlh0brdfd21mCTL1ysy-15" value="ALU SCR" style="text;html=1;strokeColor=none;fillColor=none;align=center;verticalAlign=middle;whiteSpace=wrap;rounded=0;fontSize=6;fontStyle=1" vertex="1" parent="1">
          <mxGeometry x="500" y="130" width="60" height="20" as="geometry" />
        </mxCell>
        <mxCell id="Gvlh0brdfd21mCTL1ysy-16" value="ALU CNT" style="text;html=1;strokeColor=none;fillColor=none;align=center;verticalAlign=middle;whiteSpace=wrap;rounded=0;fontSize=6;fontStyle=1" vertex="1" parent="1">
          <mxGeometry x="500" y="110" width="60" height="20" as="geometry" />
        </mxCell>
        <mxCell id="Gvlh0brdfd21mCTL1ysy-17" value="MEMR" style="text;html=1;strokeColor=none;fillColor=none;align=center;verticalAlign=middle;whiteSpace=wrap;rounded=0;fontSize=6;fontStyle=1" vertex="1" parent="1">
          <mxGeometry x="500" y="50" width="60" height="20" as="geometry" />
        </mxCell>
        <mxCell id="Gvlh0brdfd21mCTL1ysy-18" value="MEMW" style="text;html=1;strokeColor=none;fillColor=none;align=center;verticalAlign=middle;whiteSpace=wrap;rounded=0;fontSize=6;fontStyle=1" vertex="1" parent="1">
          <mxGeometry x="500" y="70" width="60" height="20" as="geometry" />
        </mxCell>
        <mxCell id="Gvlh0brdfd21mCTL1ysy-19" value="BRANCH" style="text;html=1;strokeColor=none;fillColor=none;align=center;verticalAlign=middle;whiteSpace=wrap;rounded=0;fontSize=6;fontStyle=1" vertex="1" parent="1">
          <mxGeometry x="500" y="90" width="60" height="20" as="geometry" />
        </mxCell>
        <mxCell id="Gvlh0brdfd21mCTL1ysy-20" value="REG DEST" style="text;html=1;strokeColor=none;fillColor=none;align=center;verticalAlign=middle;whiteSpace=wrap;rounded=0;fontSize=6;fontStyle=1" vertex="1" parent="1">
          <mxGeometry x="500" y="150" width="60" height="20" as="geometry" />
        </mxCell>
        <mxCell id="Gvlh0brdfd21mCTL1ysy-21" value="DESL" style="text;html=1;strokeColor=none;fillColor=none;align=center;verticalAlign=middle;whiteSpace=wrap;rounded=0;fontSize=6;fontStyle=1" vertex="1" parent="1">
          <mxGeometry x="400" y="50" width="60" height="20" as="geometry" />
        </mxCell>
        <mxCell id="Gvlh0brdfd21mCTL1ysy-22" value="IMM" style="text;html=1;strokeColor=none;fillColor=none;align=center;verticalAlign=middle;whiteSpace=wrap;rounded=0;fontSize=6;fontStyle=1" vertex="1" parent="1">
          <mxGeometry x="400" y="70" width="60" height="20" as="geometry" />
        </mxCell>
        <mxCell id="Gvlh0brdfd21mCTL1ysy-23" value="JUMP" style="text;html=1;strokeColor=none;fillColor=none;align=center;verticalAlign=middle;whiteSpace=wrap;rounded=0;fontSize=6;fontStyle=1" vertex="1" parent="1">
          <mxGeometry x="400" y="90" width="60" height="20" as="geometry" />
        </mxCell>
        <mxCell id="Gvlh0brdfd21mCTL1ysy-24" value="" style="endArrow=none;html=1;rounded=0;" edge="1" parent="1">
          <mxGeometry width="50" height="50" relative="1" as="geometry">
            <mxPoint x="679" y="327.5" as="sourcePoint" />
            <mxPoint x="639" y="307.5" as="targetPoint" />
          </mxGeometry>
        </mxCell>
        <mxCell id="Gvlh0brdfd21mCTL1ysy-25" value="" style="endArrow=none;html=1;rounded=0;" edge="1" parent="1">
          <mxGeometry width="50" height="50" relative="1" as="geometry">
            <mxPoint x="679" y="347.5" as="sourcePoint" />
            <mxPoint x="639" y="367.5" as="targetPoint" />
          </mxGeometry>
        </mxCell>
        <mxCell id="Gvlh0brdfd21mCTL1ysy-26" value="" style="endArrow=none;html=1;rounded=0;" edge="1" parent="1">
          <mxGeometry width="50" height="50" relative="1" as="geometry">
            <mxPoint x="679" y="347.5" as="sourcePoint" />
            <mxPoint x="679" y="327.5" as="targetPoint" />
          </mxGeometry>
        </mxCell>
        <mxCell id="Gvlh0brdfd21mCTL1ysy-28" value="" style="endArrow=none;html=1;rounded=0;" edge="1" parent="1">
          <mxGeometry width="50" height="50" relative="1" as="geometry">
            <mxPoint x="639" y="327.5" as="sourcePoint" />
            <mxPoint x="639" y="307.5" as="targetPoint" />
            <Array as="points">
              <mxPoint x="639" y="317.5" />
            </Array>
          </mxGeometry>
        </mxCell>
        <mxCell id="Gvlh0brdfd21mCTL1ysy-29" value="" style="endArrow=none;html=1;rounded=0;" edge="1" parent="1">
          <mxGeometry width="50" height="50" relative="1" as="geometry">
            <mxPoint x="639" y="367.5" as="sourcePoint" />
            <mxPoint x="639" y="347.5" as="targetPoint" />
            <Array as="points">
              <mxPoint x="639" y="357.5" />
            </Array>
          </mxGeometry>
        </mxCell>
        <mxCell id="Gvlh0brdfd21mCTL1ysy-30" value="" style="endArrow=none;html=1;rounded=0;" edge="1" parent="1">
          <mxGeometry width="50" height="50" relative="1" as="geometry">
            <mxPoint x="639" y="347.5" as="sourcePoint" />
            <mxPoint x="649" y="337.5" as="targetPoint" />
          </mxGeometry>
        </mxCell>
        <mxCell id="Gvlh0brdfd21mCTL1ysy-31" value="" style="endArrow=none;html=1;rounded=0;" edge="1" parent="1">
          <mxGeometry width="50" height="50" relative="1" as="geometry">
            <mxPoint x="639" y="327.5" as="sourcePoint" />
            <mxPoint x="649" y="337.5" as="targetPoint" />
          </mxGeometry>
        </mxCell>
        <mxCell id="Gvlh0brdfd21mCTL1ysy-32" value="ALU" style="text;html=1;strokeColor=none;fillColor=none;align=center;verticalAlign=middle;whiteSpace=wrap;rounded=0;fontSize=6;fontStyle=1" vertex="1" parent="1">
          <mxGeometry x="640" y="327.5" width="40" height="20" as="geometry" />
        </mxCell>
        <mxCell id="Gvlh0brdfd21mCTL1ysy-33" value="Zero" style="text;html=1;strokeColor=none;fillColor=none;align=center;verticalAlign=middle;whiteSpace=wrap;rounded=0;fontSize=6;fontStyle=1" vertex="1" parent="1">
          <mxGeometry x="675" y="321.5" width="40" height="10" as="geometry" />
        </mxCell>
        <mxCell id="Gvlh0brdfd21mCTL1ysy-34" value="ALU res" style="text;html=1;strokeColor=none;fillColor=none;align=center;verticalAlign=middle;whiteSpace=wrap;rounded=0;fontSize=6;fontStyle=1" vertex="1" parent="1">
          <mxGeometry x="675" y="342.5" width="40" height="10" as="geometry" />
        </mxCell>
        <mxCell id="Gvlh0brdfd21mCTL1ysy-35" value="" style="rounded=0;whiteSpace=wrap;html=1;" vertex="1" parent="1">
          <mxGeometry x="190" y="254" width="80" height="65" as="geometry" />
        </mxCell>
        <mxCell id="Gvlh0brdfd21mCTL1ysy-36" value="INSTRUCTION&amp;nbsp;&lt;br&gt;MEMORY" style="text;html=1;strokeColor=none;fillColor=none;align=center;verticalAlign=middle;whiteSpace=wrap;rounded=0;fontSize=6;fontStyle=1" vertex="1" parent="1">
          <mxGeometry x="200" y="296.5" width="60" height="20" as="geometry" />
        </mxCell>
        <mxCell id="Gvlh0brdfd21mCTL1ysy-37" value="Mem&lt;br&gt;Data" style="text;html=1;strokeColor=none;fillColor=none;align=center;verticalAlign=middle;whiteSpace=wrap;rounded=0;fontSize=6;fontStyle=1" vertex="1" parent="1">
          <mxGeometry x="230" y="273" width="60" height="20" as="geometry" />
        </mxCell>
        <mxCell id="Gvlh0brdfd21mCTL1ysy-142" style="edgeStyle=orthogonalEdgeStyle;shape=connector;rounded=0;orthogonalLoop=1;jettySize=auto;html=1;exitX=0;exitY=0.5;exitDx=0;exitDy=0;entryX=1;entryY=0.5;entryDx=0;entryDy=0;labelBackgroundColor=default;strokeColor=default;fontFamily=Helvetica;fontSize=11;fontColor=default;endArrow=none;endFill=0;" edge="1" parent="1" source="Gvlh0brdfd21mCTL1ysy-38" target="Gvlh0brdfd21mCTL1ysy-48">
          <mxGeometry relative="1" as="geometry" />
        </mxCell>
        <mxCell id="Gvlh0brdfd21mCTL1ysy-143" style="edgeStyle=orthogonalEdgeStyle;shape=connector;rounded=0;orthogonalLoop=1;jettySize=auto;html=1;exitX=0;exitY=0.5;exitDx=0;exitDy=0;labelBackgroundColor=default;strokeColor=default;fontFamily=Helvetica;fontSize=11;fontColor=default;endArrow=none;endFill=0;" edge="1" parent="1" source="Gvlh0brdfd21mCTL1ysy-38">
          <mxGeometry relative="1" as="geometry">
            <mxPoint x="200" y="520" as="targetPoint" />
            <Array as="points">
              <mxPoint x="170" y="269" />
              <mxPoint x="170" y="520" />
            </Array>
          </mxGeometry>
        </mxCell>
        <mxCell id="Gvlh0brdfd21mCTL1ysy-38" value="Address" style="text;html=1;strokeColor=none;fillColor=none;align=center;verticalAlign=middle;whiteSpace=wrap;rounded=0;fontSize=6;fontStyle=1" vertex="1" parent="1">
          <mxGeometry x="190" y="259" width="40" height="20" as="geometry" />
        </mxCell>
        <mxCell id="Gvlh0brdfd21mCTL1ysy-39" value="Write Data" style="text;html=1;strokeColor=none;fillColor=none;align=center;verticalAlign=middle;whiteSpace=wrap;rounded=0;fontSize=6;fontStyle=1" vertex="1" parent="1">
          <mxGeometry x="180" y="278" width="60" height="20" as="geometry" />
        </mxCell>
        <mxCell id="Gvlh0brdfd21mCTL1ysy-40" value="" style="shape=trapezoid;perimeter=trapezoidPerimeter;whiteSpace=wrap;html=1;fixedSize=1;direction=south;" vertex="1" parent="1">
          <mxGeometry x="942" y="362.5" width="20" height="60" as="geometry" />
        </mxCell>
        <mxCell id="Gvlh0brdfd21mCTL1ysy-41" value="M&lt;br&gt;U&lt;br&gt;X" style="text;html=1;strokeColor=none;fillColor=none;align=center;verticalAlign=middle;whiteSpace=wrap;rounded=0;fontSize=6;fontStyle=1;rotation=0;" vertex="1" parent="1">
          <mxGeometry x="947" y="381.5" width="15" height="20" as="geometry" />
        </mxCell>
        <mxCell id="Gvlh0brdfd21mCTL1ysy-135" style="edgeStyle=orthogonalEdgeStyle;shape=connector;rounded=0;orthogonalLoop=1;jettySize=auto;html=1;exitX=0;exitY=0.5;exitDx=0;exitDy=0;labelBackgroundColor=default;strokeColor=default;fontFamily=Helvetica;fontSize=11;fontColor=default;endArrow=none;endFill=0;entryX=0;entryY=0.5;entryDx=0;entryDy=0;" edge="1" parent="1" source="Gvlh0brdfd21mCTL1ysy-42" target="Gvlh0brdfd21mCTL1ysy-57">
          <mxGeometry relative="1" as="geometry">
            <mxPoint x="770" y="390" as="targetPoint" />
            <Array as="points">
              <mxPoint x="920" y="380" />
              <mxPoint x="920" y="360" />
              <mxPoint x="770" y="360" />
              <mxPoint x="770" y="391" />
            </Array>
          </mxGeometry>
        </mxCell>
        <mxCell id="Gvlh0brdfd21mCTL1ysy-42" value="0" style="text;html=1;strokeColor=none;fillColor=none;align=center;verticalAlign=middle;whiteSpace=wrap;rounded=0;fontSize=6;fontStyle=1;rotation=0;" vertex="1" parent="1">
          <mxGeometry x="942" y="370" width="15" height="20" as="geometry" />
        </mxCell>
        <mxCell id="Gvlh0brdfd21mCTL1ysy-43" value="1" style="text;html=1;strokeColor=none;fillColor=none;align=center;verticalAlign=middle;whiteSpace=wrap;rounded=0;fontSize=6;fontStyle=1;rotation=0;" vertex="1" parent="1">
          <mxGeometry x="940" y="400" width="15" height="12.5" as="geometry" />
        </mxCell>
        <mxCell id="Gvlh0brdfd21mCTL1ysy-48" value="" style="rounded=0;whiteSpace=wrap;html=1;" vertex="1" parent="1">
          <mxGeometry x="140" y="254" width="20" height="30" as="geometry" />
        </mxCell>
        <mxCell id="Gvlh0brdfd21mCTL1ysy-49" value="PC" style="text;html=1;strokeColor=none;fillColor=none;align=center;verticalAlign=middle;whiteSpace=wrap;rounded=0;fontSize=6;fontStyle=1" vertex="1" parent="1">
          <mxGeometry x="142.5" y="259" width="15" height="20" as="geometry" />
        </mxCell>
        <mxCell id="Gvlh0brdfd21mCTL1ysy-50" value="" style="shape=trapezoid;perimeter=trapezoidPerimeter;whiteSpace=wrap;html=1;fixedSize=1;direction=south;" vertex="1" parent="1">
          <mxGeometry x="92" y="236.5" width="20" height="60" as="geometry" />
        </mxCell>
        <mxCell id="Gvlh0brdfd21mCTL1ysy-144" style="edgeStyle=orthogonalEdgeStyle;shape=connector;rounded=0;orthogonalLoop=1;jettySize=auto;html=1;exitX=1;exitY=0.5;exitDx=0;exitDy=0;entryX=0;entryY=0.5;entryDx=0;entryDy=0;labelBackgroundColor=default;strokeColor=default;fontFamily=Helvetica;fontSize=11;fontColor=default;endArrow=none;endFill=0;" edge="1" parent="1" source="Gvlh0brdfd21mCTL1ysy-51" target="Gvlh0brdfd21mCTL1ysy-48">
          <mxGeometry relative="1" as="geometry" />
        </mxCell>
        <mxCell id="Gvlh0brdfd21mCTL1ysy-51" value="M&lt;br&gt;U&lt;br&gt;X" style="text;html=1;strokeColor=none;fillColor=none;align=center;verticalAlign=middle;whiteSpace=wrap;rounded=0;fontSize=6;fontStyle=1;rotation=0;" vertex="1" parent="1">
          <mxGeometry x="97" y="255.5" width="15" height="20" as="geometry" />
        </mxCell>
        <mxCell id="Gvlh0brdfd21mCTL1ysy-52" value="0" style="text;html=1;strokeColor=none;fillColor=none;align=center;verticalAlign=middle;whiteSpace=wrap;rounded=0;fontSize=6;fontStyle=1;rotation=0;" vertex="1" parent="1">
          <mxGeometry x="90" y="244.5" width="15" height="20" as="geometry" />
        </mxCell>
        <mxCell id="Gvlh0brdfd21mCTL1ysy-151" style="edgeStyle=orthogonalEdgeStyle;shape=connector;rounded=0;orthogonalLoop=1;jettySize=auto;html=1;exitX=0;exitY=0.5;exitDx=0;exitDy=0;labelBackgroundColor=default;strokeColor=default;fontFamily=Helvetica;fontSize=11;fontColor=default;endArrow=none;endFill=0;" edge="1" parent="1" source="Gvlh0brdfd21mCTL1ysy-53">
          <mxGeometry relative="1" as="geometry">
            <mxPoint x="70" y="280" as="targetPoint" />
            <Array as="points">
              <mxPoint x="90" y="280" />
            </Array>
          </mxGeometry>
        </mxCell>
        <mxCell id="Gvlh0brdfd21mCTL1ysy-53" value="1" style="text;html=1;strokeColor=none;fillColor=none;align=center;verticalAlign=middle;whiteSpace=wrap;rounded=0;fontSize=6;fontStyle=1;rotation=0;" vertex="1" parent="1">
          <mxGeometry x="90" y="269" width="15" height="20" as="geometry" />
        </mxCell>
        <mxCell id="Gvlh0brdfd21mCTL1ysy-54" value="" style="rounded=0;whiteSpace=wrap;html=1;" vertex="1" parent="1">
          <mxGeometry x="790" y="375" width="70" height="62.5" as="geometry" />
        </mxCell>
        <mxCell id="Gvlh0brdfd21mCTL1ysy-55" value="DATA&lt;br&gt;MEMORY" style="text;html=1;strokeColor=none;fillColor=none;align=center;verticalAlign=middle;whiteSpace=wrap;rounded=0;fontSize=6;fontStyle=1" vertex="1" parent="1">
          <mxGeometry x="795" y="417.5" width="60" height="17.5" as="geometry" />
        </mxCell>
        <mxCell id="Gvlh0brdfd21mCTL1ysy-136" style="edgeStyle=orthogonalEdgeStyle;shape=connector;rounded=0;orthogonalLoop=1;jettySize=auto;html=1;exitX=1;exitY=0.5;exitDx=0;exitDy=0;labelBackgroundColor=default;strokeColor=default;fontFamily=Helvetica;fontSize=11;fontColor=default;endArrow=none;endFill=0;entryX=0.163;entryY=0.52;entryDx=0;entryDy=0;entryPerimeter=0;" edge="1" parent="1" source="Gvlh0brdfd21mCTL1ysy-56" target="Gvlh0brdfd21mCTL1ysy-43">
          <mxGeometry relative="1" as="geometry">
            <mxPoint x="940" y="410" as="targetPoint" />
            <Array as="points">
              <mxPoint x="940" y="406" />
            </Array>
          </mxGeometry>
        </mxCell>
        <mxCell id="Gvlh0brdfd21mCTL1ysy-56" value="Read&lt;br&gt;Data" style="text;html=1;strokeColor=none;fillColor=none;align=center;verticalAlign=middle;whiteSpace=wrap;rounded=0;fontSize=6;fontStyle=1" vertex="1" parent="1">
          <mxGeometry x="840" y="396.25" width="20" height="20" as="geometry" />
        </mxCell>
        <mxCell id="Gvlh0brdfd21mCTL1ysy-132" style="edgeStyle=orthogonalEdgeStyle;shape=connector;rounded=0;orthogonalLoop=1;jettySize=auto;html=1;exitX=0;exitY=0.5;exitDx=0;exitDy=0;labelBackgroundColor=default;strokeColor=default;fontFamily=Helvetica;fontSize=11;fontColor=default;endArrow=none;endFill=0;" edge="1" parent="1" source="Gvlh0brdfd21mCTL1ysy-57">
          <mxGeometry relative="1" as="geometry">
            <mxPoint x="680" y="340" as="targetPoint" />
            <Array as="points">
              <mxPoint x="720" y="391" />
              <mxPoint x="720" y="340" />
            </Array>
          </mxGeometry>
        </mxCell>
        <mxCell id="Gvlh0brdfd21mCTL1ysy-57" value="Address" style="text;html=1;strokeColor=none;fillColor=none;align=center;verticalAlign=middle;whiteSpace=wrap;rounded=0;fontSize=6;fontStyle=1" vertex="1" parent="1">
          <mxGeometry x="790" y="381.5" width="40" height="20" as="geometry" />
        </mxCell>
        <mxCell id="Gvlh0brdfd21mCTL1ysy-131" style="edgeStyle=orthogonalEdgeStyle;shape=connector;rounded=0;orthogonalLoop=1;jettySize=auto;html=1;exitX=0;exitY=0.5;exitDx=0;exitDy=0;labelBackgroundColor=default;strokeColor=default;fontFamily=Helvetica;fontSize=11;fontColor=default;endArrow=none;endFill=0;" edge="1" parent="1" source="Gvlh0brdfd21mCTL1ysy-58">
          <mxGeometry relative="1" as="geometry">
            <mxPoint x="550" y="380" as="targetPoint" />
            <Array as="points">
              <mxPoint x="680" y="408" />
              <mxPoint x="680" y="430" />
              <mxPoint x="550" y="430" />
            </Array>
          </mxGeometry>
        </mxCell>
        <mxCell id="Gvlh0brdfd21mCTL1ysy-58" value="Write Data" style="text;html=1;strokeColor=none;fillColor=none;align=center;verticalAlign=middle;whiteSpace=wrap;rounded=0;fontSize=6;fontStyle=1" vertex="1" parent="1">
          <mxGeometry x="790" y="397.5" width="40" height="20" as="geometry" />
        </mxCell>
        <mxCell id="Gvlh0brdfd21mCTL1ysy-60" value="" style="endArrow=none;html=1;rounded=0;" edge="1" parent="1">
          <mxGeometry width="50" height="50" relative="1" as="geometry">
            <mxPoint x="242.5" y="530" as="sourcePoint" />
            <mxPoint x="200" y="510" as="targetPoint" />
          </mxGeometry>
        </mxCell>
        <mxCell id="Gvlh0brdfd21mCTL1ysy-61" value="" style="endArrow=none;html=1;rounded=0;" edge="1" parent="1">
          <mxGeometry width="50" height="50" relative="1" as="geometry">
            <mxPoint x="242.5" y="550" as="sourcePoint" />
            <mxPoint x="200" y="570" as="targetPoint" />
          </mxGeometry>
        </mxCell>
        <mxCell id="Gvlh0brdfd21mCTL1ysy-62" value="" style="endArrow=none;html=1;rounded=0;" edge="1" parent="1">
          <mxGeometry width="50" height="50" relative="1" as="geometry">
            <mxPoint x="242.5" y="550" as="sourcePoint" />
            <mxPoint x="242.5" y="530" as="targetPoint" />
          </mxGeometry>
        </mxCell>
        <mxCell id="Gvlh0brdfd21mCTL1ysy-63" value="" style="endArrow=none;html=1;rounded=0;" edge="1" parent="1">
          <mxGeometry width="50" height="50" relative="1" as="geometry">
            <mxPoint x="200" y="530" as="sourcePoint" />
            <mxPoint x="200" y="510" as="targetPoint" />
            <Array as="points">
              <mxPoint x="200" y="520" />
            </Array>
          </mxGeometry>
        </mxCell>
        <mxCell id="Gvlh0brdfd21mCTL1ysy-64" value="" style="endArrow=none;html=1;rounded=0;" edge="1" parent="1">
          <mxGeometry width="50" height="50" relative="1" as="geometry">
            <mxPoint x="200" y="570" as="sourcePoint" />
            <mxPoint x="200" y="550" as="targetPoint" />
            <Array as="points">
              <mxPoint x="200" y="560" />
            </Array>
          </mxGeometry>
        </mxCell>
        <mxCell id="Gvlh0brdfd21mCTL1ysy-65" value="" style="endArrow=none;html=1;rounded=0;" edge="1" parent="1">
          <mxGeometry width="50" height="50" relative="1" as="geometry">
            <mxPoint x="200" y="550" as="sourcePoint" />
            <mxPoint x="210" y="540" as="targetPoint" />
          </mxGeometry>
        </mxCell>
        <mxCell id="Gvlh0brdfd21mCTL1ysy-66" value="" style="endArrow=none;html=1;rounded=0;" edge="1" parent="1">
          <mxGeometry width="50" height="50" relative="1" as="geometry">
            <mxPoint x="200" y="530" as="sourcePoint" />
            <mxPoint x="210" y="540" as="targetPoint" />
          </mxGeometry>
        </mxCell>
        <mxCell id="Gvlh0brdfd21mCTL1ysy-138" style="edgeStyle=orthogonalEdgeStyle;shape=connector;rounded=0;orthogonalLoop=1;jettySize=auto;html=1;labelBackgroundColor=default;strokeColor=default;fontFamily=Helvetica;fontSize=11;fontColor=default;endArrow=none;endFill=0;exitX=1.078;exitY=0.533;exitDx=0;exitDy=0;exitPerimeter=0;" edge="1" parent="1" source="Gvlh0brdfd21mCTL1ysy-67">
          <mxGeometry relative="1" as="geometry">
            <mxPoint x="700" y="660" as="targetPoint" />
            <mxPoint x="240" y="540" as="sourcePoint" />
            <Array as="points">
              <mxPoint x="250" y="541" />
              <mxPoint x="250" y="680" />
              <mxPoint x="690" y="680" />
              <mxPoint x="690" y="660" />
            </Array>
          </mxGeometry>
        </mxCell>
        <mxCell id="Gvlh0brdfd21mCTL1ysy-67" value="ADD" style="text;html=1;strokeColor=none;fillColor=none;align=center;verticalAlign=middle;whiteSpace=wrap;rounded=0;fontSize=6;fontStyle=1" vertex="1" parent="1">
          <mxGeometry x="210" y="530" width="30" height="20" as="geometry" />
        </mxCell>
        <mxCell id="Gvlh0brdfd21mCTL1ysy-70" value="4" style="text;html=1;strokeColor=none;fillColor=none;align=center;verticalAlign=middle;whiteSpace=wrap;rounded=0;fontSize=6;fontStyle=1" vertex="1" parent="1">
          <mxGeometry x="175" y="552" width="15" height="18" as="geometry" />
        </mxCell>
        <mxCell id="Gvlh0brdfd21mCTL1ysy-71" value="" style="endArrow=none;html=1;rounded=0;" edge="1" parent="1">
          <mxGeometry width="50" height="50" relative="1" as="geometry">
            <mxPoint x="739.5" y="630" as="sourcePoint" />
            <mxPoint x="699.5" y="610" as="targetPoint" />
          </mxGeometry>
        </mxCell>
        <mxCell id="Gvlh0brdfd21mCTL1ysy-72" value="" style="endArrow=none;html=1;rounded=0;" edge="1" parent="1">
          <mxGeometry width="50" height="50" relative="1" as="geometry">
            <mxPoint x="739.5" y="650" as="sourcePoint" />
            <mxPoint x="699.5" y="670" as="targetPoint" />
          </mxGeometry>
        </mxCell>
        <mxCell id="Gvlh0brdfd21mCTL1ysy-73" value="" style="endArrow=none;html=1;rounded=0;" edge="1" parent="1">
          <mxGeometry width="50" height="50" relative="1" as="geometry">
            <mxPoint x="739.5" y="650" as="sourcePoint" />
            <mxPoint x="739.5" y="630" as="targetPoint" />
          </mxGeometry>
        </mxCell>
        <mxCell id="Gvlh0brdfd21mCTL1ysy-74" value="" style="endArrow=none;html=1;rounded=0;" edge="1" parent="1">
          <mxGeometry width="50" height="50" relative="1" as="geometry">
            <mxPoint x="699.5" y="630" as="sourcePoint" />
            <mxPoint x="699.5" y="610" as="targetPoint" />
            <Array as="points">
              <mxPoint x="699.5" y="620" />
            </Array>
          </mxGeometry>
        </mxCell>
        <mxCell id="Gvlh0brdfd21mCTL1ysy-75" value="" style="endArrow=none;html=1;rounded=0;" edge="1" parent="1">
          <mxGeometry width="50" height="50" relative="1" as="geometry">
            <mxPoint x="699.5" y="670" as="sourcePoint" />
            <mxPoint x="699.5" y="650" as="targetPoint" />
            <Array as="points">
              <mxPoint x="699.5" y="660" />
            </Array>
          </mxGeometry>
        </mxCell>
        <mxCell id="Gvlh0brdfd21mCTL1ysy-76" value="" style="endArrow=none;html=1;rounded=0;" edge="1" parent="1">
          <mxGeometry width="50" height="50" relative="1" as="geometry">
            <mxPoint x="699.5" y="650" as="sourcePoint" />
            <mxPoint x="709.5" y="640" as="targetPoint" />
          </mxGeometry>
        </mxCell>
        <mxCell id="Gvlh0brdfd21mCTL1ysy-77" value="" style="endArrow=none;html=1;rounded=0;" edge="1" parent="1">
          <mxGeometry width="50" height="50" relative="1" as="geometry">
            <mxPoint x="699.5" y="630" as="sourcePoint" />
            <mxPoint x="709.5" y="640" as="targetPoint" />
          </mxGeometry>
        </mxCell>
        <mxCell id="Gvlh0brdfd21mCTL1ysy-78" value="ADD" style="text;html=1;strokeColor=none;fillColor=none;align=center;verticalAlign=middle;whiteSpace=wrap;rounded=0;fontSize=6;fontStyle=1" vertex="1" parent="1">
          <mxGeometry x="689.5" y="630" width="60" height="20" as="geometry" />
        </mxCell>
        <mxCell id="Gvlh0brdfd21mCTL1ysy-80" value="" style="shape=trapezoid;perimeter=trapezoidPerimeter;whiteSpace=wrap;html=1;fixedSize=1;direction=south;" vertex="1" parent="1">
          <mxGeometry x="640" y="570" width="20" height="60" as="geometry" />
        </mxCell>
        <mxCell id="Gvlh0brdfd21mCTL1ysy-122" style="edgeStyle=orthogonalEdgeStyle;shape=connector;rounded=0;orthogonalLoop=1;jettySize=auto;html=1;exitX=1;exitY=0.5;exitDx=0;exitDy=0;labelBackgroundColor=default;strokeColor=default;fontFamily=Helvetica;fontSize=11;fontColor=default;endArrow=none;endFill=0;" edge="1" parent="1" source="Gvlh0brdfd21mCTL1ysy-81">
          <mxGeometry relative="1" as="geometry">
            <mxPoint x="700" y="620" as="targetPoint" />
            <Array as="points">
              <mxPoint x="680" y="599" />
              <mxPoint x="680" y="620" />
            </Array>
          </mxGeometry>
        </mxCell>
        <mxCell id="Gvlh0brdfd21mCTL1ysy-81" value="M&lt;br&gt;U&lt;br&gt;X" style="text;html=1;strokeColor=none;fillColor=none;align=center;verticalAlign=middle;whiteSpace=wrap;rounded=0;fontSize=6;fontStyle=1;rotation=0;" vertex="1" parent="1">
          <mxGeometry x="645" y="589" width="15" height="20" as="geometry" />
        </mxCell>
        <mxCell id="Gvlh0brdfd21mCTL1ysy-82" value="0" style="text;html=1;strokeColor=none;fillColor=none;align=center;verticalAlign=middle;whiteSpace=wrap;rounded=0;fontSize=6;fontStyle=1;rotation=0;" vertex="1" parent="1">
          <mxGeometry x="638" y="578" width="15" height="20" as="geometry" />
        </mxCell>
        <mxCell id="Gvlh0brdfd21mCTL1ysy-83" value="1" style="text;html=1;strokeColor=none;fillColor=none;align=center;verticalAlign=middle;whiteSpace=wrap;rounded=0;fontSize=6;fontStyle=1;rotation=0;" vertex="1" parent="1">
          <mxGeometry x="638" y="600" width="15" height="20" as="geometry" />
        </mxCell>
        <mxCell id="Gvlh0brdfd21mCTL1ysy-84" value="" style="shape=trapezoid;perimeter=trapezoidPerimeter;whiteSpace=wrap;html=1;fixedSize=1;direction=south;" vertex="1" parent="1">
          <mxGeometry x="587" y="362.5" width="20" height="60" as="geometry" />
        </mxCell>
        <mxCell id="Gvlh0brdfd21mCTL1ysy-121" style="edgeStyle=orthogonalEdgeStyle;shape=connector;rounded=0;orthogonalLoop=1;jettySize=auto;html=1;exitX=1;exitY=0.5;exitDx=0;exitDy=0;labelBackgroundColor=default;strokeColor=default;fontFamily=Helvetica;fontSize=11;fontColor=default;endArrow=none;endFill=0;" edge="1" parent="1" source="Gvlh0brdfd21mCTL1ysy-85">
          <mxGeometry relative="1" as="geometry">
            <mxPoint x="640" y="360" as="targetPoint" />
            <Array as="points">
              <mxPoint x="620" y="392" />
              <mxPoint x="620" y="360" />
            </Array>
          </mxGeometry>
        </mxCell>
        <mxCell id="Gvlh0brdfd21mCTL1ysy-85" value="M&lt;br&gt;U&lt;br&gt;X" style="text;html=1;strokeColor=none;fillColor=none;align=center;verticalAlign=middle;whiteSpace=wrap;rounded=0;fontSize=6;fontStyle=1;rotation=0;" vertex="1" parent="1">
          <mxGeometry x="592" y="381.5" width="15" height="20" as="geometry" />
        </mxCell>
        <mxCell id="Gvlh0brdfd21mCTL1ysy-86" value="0" style="text;html=1;strokeColor=none;fillColor=none;align=center;verticalAlign=middle;whiteSpace=wrap;rounded=0;fontSize=6;fontStyle=1;rotation=0;" vertex="1" parent="1">
          <mxGeometry x="585" y="370.5" width="15" height="20" as="geometry" />
        </mxCell>
        <mxCell id="Gvlh0brdfd21mCTL1ysy-127" style="edgeStyle=orthogonalEdgeStyle;shape=connector;rounded=0;orthogonalLoop=1;jettySize=auto;html=1;labelBackgroundColor=default;strokeColor=default;fontFamily=Helvetica;fontSize=11;fontColor=default;endArrow=none;endFill=0;exitX=0.15;exitY=0.502;exitDx=0;exitDy=0;exitPerimeter=0;" edge="1" parent="1" source="Gvlh0brdfd21mCTL1ysy-87">
          <mxGeometry relative="1" as="geometry">
            <mxPoint x="540" y="560" as="targetPoint" />
            <mxPoint x="590" y="403" as="sourcePoint" />
            <Array as="points">
              <mxPoint x="560" y="403" />
              <mxPoint x="560" y="560" />
            </Array>
          </mxGeometry>
        </mxCell>
        <mxCell id="Gvlh0brdfd21mCTL1ysy-87" value="1" style="text;html=1;strokeColor=none;fillColor=none;align=center;verticalAlign=middle;whiteSpace=wrap;rounded=0;fontSize=6;fontStyle=1;rotation=0;" vertex="1" parent="1">
          <mxGeometry x="585" y="392.5" width="15" height="20" as="geometry" />
        </mxCell>
        <mxCell id="Gvlh0brdfd21mCTL1ysy-124" style="edgeStyle=orthogonalEdgeStyle;shape=connector;rounded=0;orthogonalLoop=1;jettySize=auto;html=1;exitX=1;exitY=0.5;exitDx=0;exitDy=0;labelBackgroundColor=default;strokeColor=default;fontFamily=Helvetica;fontSize=11;fontColor=default;endArrow=none;endFill=0;" edge="1" parent="1" source="Gvlh0brdfd21mCTL1ysy-88">
          <mxGeometry relative="1" as="geometry">
            <mxPoint x="640" y="610" as="targetPoint" />
            <Array as="points">
              <mxPoint x="620" y="620" />
              <mxPoint x="620" y="610" />
            </Array>
          </mxGeometry>
        </mxCell>
        <mxCell id="Gvlh0brdfd21mCTL1ysy-126" style="edgeStyle=orthogonalEdgeStyle;shape=connector;rounded=0;orthogonalLoop=1;jettySize=auto;html=1;exitX=0;exitY=0.5;exitDx=0;exitDy=0;labelBackgroundColor=default;strokeColor=default;fontFamily=Helvetica;fontSize=11;fontColor=default;endArrow=none;endFill=0;" edge="1" parent="1" source="Gvlh0brdfd21mCTL1ysy-88">
          <mxGeometry relative="1" as="geometry">
            <mxPoint x="550" y="580" as="targetPoint" />
            <Array as="points">
              <mxPoint x="550" y="620" />
              <mxPoint x="550" y="580" />
            </Array>
          </mxGeometry>
        </mxCell>
        <mxCell id="Gvlh0brdfd21mCTL1ysy-88" value="" style="rounded=0;whiteSpace=wrap;html=1;" vertex="1" parent="1">
          <mxGeometry x="570" y="610" width="30" height="20" as="geometry" />
        </mxCell>
        <mxCell id="Gvlh0brdfd21mCTL1ysy-89" value="LL 2" style="text;html=1;strokeColor=none;fillColor=none;align=center;verticalAlign=middle;whiteSpace=wrap;rounded=0;fontSize=6;fontStyle=1" vertex="1" parent="1">
          <mxGeometry x="573.75" y="610" width="22.5" height="20" as="geometry" />
        </mxCell>
        <mxCell id="Gvlh0brdfd21mCTL1ysy-123" style="edgeStyle=orthogonalEdgeStyle;shape=connector;rounded=0;orthogonalLoop=1;jettySize=auto;html=1;exitX=1;exitY=0.5;exitDx=0;exitDy=0;labelBackgroundColor=default;strokeColor=default;fontFamily=Helvetica;fontSize=11;fontColor=default;endArrow=none;endFill=0;" edge="1" parent="1" source="Gvlh0brdfd21mCTL1ysy-90">
          <mxGeometry relative="1" as="geometry">
            <mxPoint x="640" y="588" as="targetPoint" />
            <Array as="points">
              <mxPoint x="620" y="580" />
              <mxPoint x="620" y="588" />
            </Array>
          </mxGeometry>
        </mxCell>
        <mxCell id="Gvlh0brdfd21mCTL1ysy-90" value="" style="rounded=0;whiteSpace=wrap;html=1;" vertex="1" parent="1">
          <mxGeometry x="570" y="570" width="30" height="20" as="geometry" />
        </mxCell>
        <mxCell id="Gvlh0brdfd21mCTL1ysy-91" value="LL 10" style="text;html=1;strokeColor=none;fillColor=none;align=center;verticalAlign=middle;whiteSpace=wrap;rounded=0;fontSize=6;fontStyle=1" vertex="1" parent="1">
          <mxGeometry x="573.75" y="570" width="22.5" height="20" as="geometry" />
        </mxCell>
        <mxCell id="Gvlh0brdfd21mCTL1ysy-150" style="edgeStyle=orthogonalEdgeStyle;shape=connector;rounded=0;orthogonalLoop=1;jettySize=auto;html=1;exitX=1;exitY=0.5;exitDx=0;exitDy=0;labelBackgroundColor=default;strokeColor=default;fontFamily=Helvetica;fontSize=11;fontColor=default;endArrow=none;endFill=0;" edge="1" parent="1" source="Gvlh0brdfd21mCTL1ysy-92">
          <mxGeometry relative="1" as="geometry">
            <mxPoint x="70" y="280" as="targetPoint" />
            <Array as="points">
              <mxPoint x="330" y="640" />
              <mxPoint x="330" y="456" />
              <mxPoint x="71" y="456" />
              <mxPoint x="71" y="280" />
            </Array>
          </mxGeometry>
        </mxCell>
        <mxCell id="Gvlh0brdfd21mCTL1ysy-92" value="" style="rounded=0;whiteSpace=wrap;html=1;" vertex="1" parent="1">
          <mxGeometry x="290" y="630" width="30" height="20" as="geometry" />
        </mxCell>
        <mxCell id="Gvlh0brdfd21mCTL1ysy-93" value="&amp;lt;&amp;lt; 2" style="text;html=1;strokeColor=none;fillColor=none;align=center;verticalAlign=middle;whiteSpace=wrap;rounded=0;fontSize=6;fontStyle=1" vertex="1" parent="1">
          <mxGeometry x="293.75" y="630" width="22.5" height="20" as="geometry" />
        </mxCell>
        <mxCell id="Gvlh0brdfd21mCTL1ysy-128" style="edgeStyle=orthogonalEdgeStyle;shape=connector;rounded=0;orthogonalLoop=1;jettySize=auto;html=1;exitX=0.5;exitY=0;exitDx=0;exitDy=0;labelBackgroundColor=default;strokeColor=default;fontFamily=Helvetica;fontSize=11;fontColor=default;endArrow=none;endFill=0;" edge="1" parent="1" source="Gvlh0brdfd21mCTL1ysy-94">
          <mxGeometry relative="1" as="geometry">
            <mxPoint x="450" y="560" as="targetPoint" />
            <Array as="points">
              <mxPoint x="412" y="560" />
            </Array>
          </mxGeometry>
        </mxCell>
        <mxCell id="Gvlh0brdfd21mCTL1ysy-94" value="" style="shape=trapezoid;perimeter=trapezoidPerimeter;whiteSpace=wrap;html=1;fixedSize=1;direction=south;" vertex="1" parent="1">
          <mxGeometry x="406" y="528" width="20" height="70" as="geometry" />
        </mxCell>
        <mxCell id="Gvlh0brdfd21mCTL1ysy-96" value="00" style="text;html=1;strokeColor=none;fillColor=none;align=center;verticalAlign=middle;whiteSpace=wrap;rounded=0;fontSize=6;fontStyle=1;rotation=0;" vertex="1" parent="1">
          <mxGeometry x="404" y="536" width="15" height="20" as="geometry" />
        </mxCell>
        <mxCell id="Gvlh0brdfd21mCTL1ysy-98" value="01" style="text;html=1;strokeColor=none;fillColor=none;align=center;verticalAlign=middle;whiteSpace=wrap;rounded=0;fontSize=6;fontStyle=1;rotation=0;" vertex="1" parent="1">
          <mxGeometry x="404" y="548" width="15" height="20" as="geometry" />
        </mxCell>
        <mxCell id="Gvlh0brdfd21mCTL1ysy-99" value="10" style="text;html=1;strokeColor=none;fillColor=none;align=center;verticalAlign=middle;whiteSpace=wrap;rounded=0;fontSize=6;fontStyle=1;rotation=0;" vertex="1" parent="1">
          <mxGeometry x="404" y="558" width="15" height="20" as="geometry" />
        </mxCell>
        <mxCell id="Gvlh0brdfd21mCTL1ysy-100" value="11" style="text;html=1;strokeColor=none;fillColor=none;align=center;verticalAlign=middle;whiteSpace=wrap;rounded=0;fontSize=6;fontStyle=1;rotation=0;" vertex="1" parent="1">
          <mxGeometry x="404" y="568" width="15" height="20" as="geometry" />
        </mxCell>
        <mxCell id="Gvlh0brdfd21mCTL1ysy-102" value="IMM" style="text;html=1;strokeColor=none;fillColor=none;align=center;verticalAlign=middle;whiteSpace=wrap;rounded=0;fontSize=6;fontStyle=1" vertex="1" parent="1">
          <mxGeometry x="410" y="528" width="30" height="20" as="geometry" />
        </mxCell>
        <mxCell id="Gvlh0brdfd21mCTL1ysy-105" value="" style="endArrow=none;html=1;rounded=0;" edge="1" parent="1">
          <mxGeometry width="50" height="50" relative="1" as="geometry">
            <mxPoint x="499.3299999999999" y="568" as="sourcePoint" />
            <mxPoint x="499" y="548" as="targetPoint" />
          </mxGeometry>
        </mxCell>
        <mxCell id="Gvlh0brdfd21mCTL1ysy-106" value="" style="endArrow=none;html=1;rounded=0;" edge="1" parent="1">
          <mxGeometry width="50" height="50" relative="1" as="geometry">
            <mxPoint x="450" y="567.33" as="sourcePoint" />
            <mxPoint x="500" y="567.33" as="targetPoint" />
          </mxGeometry>
        </mxCell>
        <mxCell id="Gvlh0brdfd21mCTL1ysy-107" value="" style="endArrow=none;html=1;rounded=0;" edge="1" parent="1">
          <mxGeometry width="50" height="50" relative="1" as="geometry">
            <mxPoint x="450.3299999999999" y="568" as="sourcePoint" />
            <mxPoint x="450" y="558" as="targetPoint" />
          </mxGeometry>
        </mxCell>
        <mxCell id="Gvlh0brdfd21mCTL1ysy-108" value="" style="endArrow=none;html=1;rounded=0;" edge="1" parent="1">
          <mxGeometry width="50" height="50" relative="1" as="geometry">
            <mxPoint x="450" y="558" as="sourcePoint" />
            <mxPoint x="500" y="548" as="targetPoint" />
          </mxGeometry>
        </mxCell>
        <mxCell id="Gvlh0brdfd21mCTL1ysy-125" style="edgeStyle=orthogonalEdgeStyle;shape=connector;rounded=0;orthogonalLoop=1;jettySize=auto;html=1;entryX=0;entryY=0.5;entryDx=0;entryDy=0;labelBackgroundColor=default;strokeColor=default;fontFamily=Helvetica;fontSize=11;fontColor=default;endArrow=none;endFill=0;" edge="1" parent="1" target="Gvlh0brdfd21mCTL1ysy-90">
          <mxGeometry relative="1" as="geometry">
            <mxPoint x="500" y="560" as="sourcePoint" />
            <Array as="points">
              <mxPoint x="550" y="560" />
              <mxPoint x="550" y="580" />
            </Array>
          </mxGeometry>
        </mxCell>
        <mxCell id="Gvlh0brdfd21mCTL1ysy-109" value="SIGN EXT" style="text;html=1;strokeColor=none;fillColor=none;align=center;verticalAlign=middle;whiteSpace=wrap;rounded=0;fontSize=6;fontStyle=1" vertex="1" parent="1">
          <mxGeometry x="460" y="553" width="30" height="20" as="geometry" />
        </mxCell>
        <mxCell id="Gvlh0brdfd21mCTL1ysy-110" value="" style="shape=trapezoid;perimeter=trapezoidPerimeter;whiteSpace=wrap;html=1;fixedSize=1;direction=south;" vertex="1" parent="1">
          <mxGeometry x="470" y="440" width="20" height="60" as="geometry" />
        </mxCell>
        <mxCell id="Gvlh0brdfd21mCTL1ysy-112" value="00" style="text;html=1;strokeColor=none;fillColor=none;align=center;verticalAlign=middle;whiteSpace=wrap;rounded=0;fontSize=6;fontStyle=1;rotation=0;" vertex="1" parent="1">
          <mxGeometry x="468" y="448" width="15" height="20" as="geometry" />
        </mxCell>
        <mxCell id="Gvlh0brdfd21mCTL1ysy-113" value="10" style="text;html=1;strokeColor=none;fillColor=none;align=center;verticalAlign=middle;whiteSpace=wrap;rounded=0;fontSize=6;fontStyle=1;rotation=0;" vertex="1" parent="1">
          <mxGeometry x="468" y="470" width="15" height="20" as="geometry" />
        </mxCell>
        <mxCell id="Gvlh0brdfd21mCTL1ysy-114" value="01" style="text;html=1;strokeColor=none;fillColor=none;align=center;verticalAlign=middle;whiteSpace=wrap;rounded=0;fontSize=6;fontStyle=1;rotation=0;" vertex="1" parent="1">
          <mxGeometry x="468" y="460" width="15" height="20" as="geometry" />
        </mxCell>
        <mxCell id="Gvlh0brdfd21mCTL1ysy-133" style="edgeStyle=orthogonalEdgeStyle;shape=connector;rounded=0;orthogonalLoop=1;jettySize=auto;html=1;exitX=0;exitY=0.75;exitDx=0;exitDy=0;exitPerimeter=0;entryX=1;entryY=0.25;entryDx=0;entryDy=0;labelBackgroundColor=default;strokeColor=default;fontFamily=Helvetica;fontSize=11;fontColor=default;endArrow=none;endFill=0;" edge="1" parent="1" source="Gvlh0brdfd21mCTL1ysy-116" target="Gvlh0brdfd21mCTL1ysy-32">
          <mxGeometry relative="1" as="geometry">
            <Array as="points">
              <mxPoint x="720" y="306" />
              <mxPoint x="720" y="333" />
            </Array>
          </mxGeometry>
        </mxCell>
        <mxCell id="Gvlh0brdfd21mCTL1ysy-134" style="edgeStyle=orthogonalEdgeStyle;shape=connector;rounded=0;orthogonalLoop=1;jettySize=auto;html=1;exitX=0;exitY=0.25;exitDx=0;exitDy=0;exitPerimeter=0;entryX=0.5;entryY=1;entryDx=0;entryDy=0;labelBackgroundColor=default;strokeColor=default;fontFamily=Helvetica;fontSize=11;fontColor=default;endArrow=none;endFill=0;" edge="1" parent="1" source="Gvlh0brdfd21mCTL1ysy-116" target="Gvlh0brdfd21mCTL1ysy-118">
          <mxGeometry relative="1" as="geometry" />
        </mxCell>
        <mxCell id="Gvlh0brdfd21mCTL1ysy-116" value="" style="shape=or;whiteSpace=wrap;html=1;" vertex="1" parent="1">
          <mxGeometry x="765" y="285" width="30" height="28.5" as="geometry" />
        </mxCell>
        <mxCell id="Gvlh0brdfd21mCTL1ysy-117" value="WE" style="text;html=1;strokeColor=none;fillColor=none;align=center;verticalAlign=middle;whiteSpace=wrap;rounded=0;fontSize=6;fontStyle=1" vertex="1" parent="1">
          <mxGeometry x="820" y="374" width="60" height="20" as="geometry" />
        </mxCell>
        <mxCell id="Gvlh0brdfd21mCTL1ysy-118" value="Branch" style="text;html=1;strokeColor=none;fillColor=none;align=center;verticalAlign=middle;whiteSpace=wrap;rounded=0;fontSize=6;fontStyle=1" vertex="1" parent="1">
          <mxGeometry x="720" y="280" width="40" height="9" as="geometry" />
        </mxCell>
        <mxCell id="Gvlh0brdfd21mCTL1ysy-130" style="edgeStyle=orthogonalEdgeStyle;shape=connector;rounded=0;orthogonalLoop=1;jettySize=auto;html=1;entryX=0.5;entryY=0;entryDx=0;entryDy=0;labelBackgroundColor=default;strokeColor=default;fontFamily=Helvetica;fontSize=11;fontColor=default;endArrow=none;endFill=0;" edge="1" parent="1" source="Gvlh0brdfd21mCTL1ysy-129" target="Gvlh0brdfd21mCTL1ysy-110">
          <mxGeometry relative="1" as="geometry">
            <Array as="points">
              <mxPoint x="372" y="366" />
              <mxPoint x="372" y="430" />
              <mxPoint x="500" y="430" />
              <mxPoint x="500" y="470" />
            </Array>
          </mxGeometry>
        </mxCell>
        <mxCell id="Gvlh0brdfd21mCTL1ysy-129" value="Read Reg 3" style="text;html=1;strokeColor=none;fillColor=none;align=center;verticalAlign=middle;whiteSpace=wrap;rounded=0;fontSize=6;fontStyle=1" vertex="1" parent="1">
          <mxGeometry x="400" y="356.5" width="40" height="20" as="geometry" />
        </mxCell>
        <mxCell id="Gvlh0brdfd21mCTL1ysy-141" style="edgeStyle=orthogonalEdgeStyle;shape=connector;rounded=0;orthogonalLoop=1;jettySize=auto;html=1;labelBackgroundColor=default;strokeColor=default;fontFamily=Helvetica;fontSize=11;fontColor=default;endArrow=none;endFill=0;" edge="1" parent="1">
          <mxGeometry relative="1" as="geometry">
            <mxPoint x="187.5" y="560.86" as="sourcePoint" />
            <mxPoint x="200" y="560.86" as="targetPoint" />
          </mxGeometry>
        </mxCell>
        <mxCell id="Gvlh0brdfd21mCTL1ysy-145" value="" style="shape=trapezoid;perimeter=trapezoidPerimeter;whiteSpace=wrap;html=1;fixedSize=1;direction=south;" vertex="1" parent="1">
          <mxGeometry x="42" y="226.5" width="20" height="60" as="geometry" />
        </mxCell>
        <mxCell id="Gvlh0brdfd21mCTL1ysy-149" style="edgeStyle=orthogonalEdgeStyle;shape=connector;rounded=0;orthogonalLoop=1;jettySize=auto;html=1;exitX=1;exitY=0.5;exitDx=0;exitDy=0;entryX=0;entryY=0.5;entryDx=0;entryDy=0;labelBackgroundColor=default;strokeColor=default;fontFamily=Helvetica;fontSize=11;fontColor=default;endArrow=none;endFill=0;" edge="1" parent="1" source="Gvlh0brdfd21mCTL1ysy-146" target="Gvlh0brdfd21mCTL1ysy-52">
          <mxGeometry relative="1" as="geometry">
            <Array as="points">
              <mxPoint x="90" y="256" />
            </Array>
          </mxGeometry>
        </mxCell>
        <mxCell id="Gvlh0brdfd21mCTL1ysy-146" value="M&lt;br&gt;U&lt;br&gt;X" style="text;html=1;strokeColor=none;fillColor=none;align=center;verticalAlign=middle;whiteSpace=wrap;rounded=0;fontSize=6;fontStyle=1;rotation=0;" vertex="1" parent="1">
          <mxGeometry x="47" y="245.5" width="15" height="20" as="geometry" />
        </mxCell>
        <mxCell id="Gvlh0brdfd21mCTL1ysy-147" value="0" style="text;html=1;strokeColor=none;fillColor=none;align=center;verticalAlign=middle;whiteSpace=wrap;rounded=0;fontSize=6;fontStyle=1;rotation=0;" vertex="1" parent="1">
          <mxGeometry x="40" y="234.5" width="15" height="20" as="geometry" />
        </mxCell>
        <mxCell id="Gvlh0brdfd21mCTL1ysy-148" value="1" style="text;html=1;strokeColor=none;fillColor=none;align=center;verticalAlign=middle;whiteSpace=wrap;rounded=0;fontSize=6;fontStyle=1;rotation=0;" vertex="1" parent="1">
          <mxGeometry x="40" y="256.5" width="15" height="20" as="geometry" />
        </mxCell>
      </root>
    </mxGraphModel>
  </diagram>
</mxfile>
